<svg xmlns="http://www.w3.org/2000/svg" viewBox="0 0 256 256" role="img" aria-labelledby="title desc">
  <title id="title">Mizba Taranum MT mark</title>
  <desc id="desc">A premium geometric MT monogram with teal, blue, and violet gradients.</desc>
  <defs>
    <linearGradient id="bg" x1="24" y1="24" x2="232" y2="232" gradientUnits="userSpaceOnUse">
      <stop offset="0" stop-color="#07111d"/>
      <stop offset="0.45" stop-color="#0b1628"/>
      <stop offset="1" stop-color="#111032"/>
    </linearGradient>
    <linearGradient id="gem" x1="45" y1="45" x2="214" y2="220" gradientUnits="userSpaceOnUse">
      <stop offset="0" stop-color="#2dd4bf"/>
      <stop offset="0.5" stop-color="#38bdf8"/>
      <stop offset="1" stop-color="#8b5cf6"/>
    </linearGradient>
    <filter id="glow" x="-30%" y="-30%" width="160%" height="160%">
      <feGaussianBlur stdDeviation="7" result="blur"/>
      <feColorMatrix in="blur" type="matrix" values="0 0 0 0 0.25 0 0 0 0 0.77 0 0 0 0 1 0 0 0 .65 0"/>
      <feMerge>
        <feMergeNode/>
        <feMergeNode in="SourceGraphic"/>
      </feMerge>
    </filter>
  </defs>
  <rect width="256" height="256" rx="56" fill="url(#bg)"/>
  <path d="M127.6 20 222 76.2v103.6L127.6 236 34 179.8V76.2L127.6 20Z" fill="url(#gem)" opacity="0.13"/>
  <path d="M127.6 29.5 213 80.8v98.4l-85.4 51.3-84.6-51.3V80.8l84.6-51.3Z" fill="none" stroke="url(#gem)" stroke-width="4" opacity="0.72"/>
  <path d="M64 174V82h25.5l38.3 47.6L166.3 82H192v92h-24.2v-56.3l-34.1 41.2h-12l-33.8-41.2V174H64Z" fill="#f8fbff"/>
  <path d="M106 82h86v22h-31v70h-24v-70h-31V82Z" fill="url(#gem)" filter="url(#glow)"/>
  <circle cx="204" cy="53" r="6" fill="#2dd4bf"/>
  <circle cx="52" cy="203" r="5" fill="#8b5cf6"/>
</svg>
